<?xml version="1.0" encoding="utf-8"?>
<!-- Generator: Adobe Illustrator 27.1.1, SVG Export Plug-In . SVG Version: 6.00 Build 0)  -->
<svg version="1.1" id="Layer_1" xmlns="http://www.w3.org/2000/svg" xmlns:xlink="http://www.w3.org/1999/xlink" x="0px" y="0px"
	 viewBox="0 0 1025 1024" style="enable-background:new 0 0 1025 1024;" xml:space="preserve">
<style type="text/css">
	.st0{fill:#1A5C00;}
</style>
<path class="st0" d="M18,460.8c-6.8,0-13.7-3.4-17.1-13.7s3.4-17.1,13.7-20.5l989.9-256c10.2-3.4,17.1,3.4,20.5,13.7
	c3.4,10.2-3.4,17.1-13.7,20.5l-989.9,256H18z"/>
<path class="st0" d="M18,1024c-3.4,0-6.8,0-10.2-3.4s-6.8-6.8-6.8-13.7V798.7c0-6.8,3.4-10.2,6.8-13.7s10.2-3.4,13.7-3.4H35
	c37.5,0,68.3-30.7,68.3-68.3S72.6,645.1,35,645.1H21.4c-3.4,0-10.2,0-13.7-3.4c-3.4,0-6.8-3.4-6.8-6.8V443.7
	c0-6.8,3.4-10.2,6.8-13.7S448,81.9,553.8,3.4C557.3,0,560.7,0,564.1,0c385.7,0,457.4,174.1,460.8,180.9v553
	c0,6.8-6.8,13.7-13.7,17.1L21.4,1024H18z M35,819.2V983l955.7-262.8V191.1c-10.2-20.5-88.7-157-419.8-157
	C465.1,112.6,89.6,409.6,35,450.6v163.8c58,0,102.4,44.4,102.4,102.4S93,819.2,35,819.2L35,819.2z"/>
<path class="st0" d="M274,682.7c-58,0-102.4-44.4-102.4-102.4S215.9,477.9,274,477.9s102.4,44.4,102.4,102.4S332,682.7,274,682.7z
	 M274,512c-37.5,0-68.3,30.7-68.3,68.3s30.7,68.3,68.3,68.3s68.3-30.7,68.3-68.3S311.5,512,274,512z M768.9,682.7
	c-47.8,0-85.3-37.5-85.3-85.3s37.5-85.3,85.3-85.3s85.3,37.5,85.3,85.3S816.7,682.7,768.9,682.7z M768.9,546.1
	c-27.3,0-51.2,23.9-51.2,51.2s23.9,51.2,51.2,51.2s51.2-23.9,51.2-51.2S796.2,546.1,768.9,546.1z M495.8,750.9
	c-27.3,0-51.2-23.9-51.2-51.2s23.9-51.2,51.2-51.2s51.2,23.9,51.2,51.2S523.1,750.9,495.8,750.9L495.8,750.9z M495.8,682.7
	c-10.2,0-17.1,6.8-17.1,17.1s6.8,17.1,17.1,17.1s17.1-6.8,17.1-17.1S506.1,682.7,495.8,682.7L495.8,682.7z"/>
<path class="st0" d="M564.1,477.9c-27.3,0-51.2-23.9-51.2-51.2s23.9-51.2,51.2-51.2s51.2,23.9,51.2,51.2S591.4,477.9,564.1,477.9z
	 M564.1,409.6c-10.2,0-17.1,6.8-17.1,17.1s6.8,17.1,17.1,17.1s17.1-6.8,17.1-17.1S574.3,409.6,564.1,409.6z"/>
</svg>
